<svg width="60" height="25" viewBox="0 0 60 25" fill="none" xmlns="http://www.w3.org/2000/svg">
<path fill-rule="evenodd" clip-rule="evenodd" d="M47.7578 17.3393C50.3726 17.3393 52.5869 15.1575 52.5869 12.431C52.5869 9.70423 50.3727 7.55019 47.7578 7.55019C45.0628 7.55019 42.9032 9.70423 42.9032 12.4309C42.9032 15.1575 45.0628 17.3392 47.7578 17.3392V17.3393ZM41.6085 12.4309C41.6085 8.99556 44.3599 6.21547 47.7578 6.21547C51.1575 6.21547 53.9053 8.9955 53.9053 12.4309C53.9053 15.8922 51.1575 18.6759 47.7578 18.6759C44.3599 18.6759 41.6085 15.8922 41.6085 12.4309V12.4309ZM32.9827 12.4309C33.7621 12.375 35.0312 11.4773 35.5156 10.9323C35.3263 11.5858 35.3263 13.6571 35.5156 14.3125C34.9766 13.5227 33.7621 12.5672 32.9827 12.4309ZM28.5596 5.86198C29.5302 5.86198 30.3114 6.81567 30.3114 7.90737C30.3114 8.9955 29.5302 9.95289 28.5596 9.95289H25.2127V5.86192L28.5596 5.86198ZM28.5596 15.0471C29.5302 15.0471 30.3114 16.0027 30.3114 17.0926C30.3114 18.2395 29.5302 19.1914 28.5596 19.1914H25.2127V15.0471H28.5596ZM47.7578 24.9999C54.499 24.9999 60 19.3294 60 12.4309C60 5.42381 54.499 0 47.7578 0C40.9366 0 37.484 5.01506 36.65 7.06045C36.65 4.0337 33.6546 0.40869 30.1766 0.40869H18.9323V24.8915H29.3936C33.6546 24.8915 36.65 21.2093 36.65 17.9928C37.5933 19.9832 40.9366 25 47.7578 25V24.9999ZM17.5867 24.891H11.0057V15.402H6.74292V24.891H0V0.408266H6.74292V9.54001H11.0057V0.408326H17.5867V24.891Z" fill="url(#paint0_linear)"/>
<defs>
<linearGradient id="paint0_linear" x1="1.78814e-06" y1="25" x2="2.67439" y2="-5.09434" gradientUnits="userSpaceOnUse">
<stop stop-color="#FC0434"/>
<stop offset="1" stop-color="#FF8805"/>
</linearGradient>
</defs>
</svg>
