<svg width="43" height="42" viewBox="0 0 43 42" fill="none" xmlns="http://www.w3.org/2000/svg">
<path fill-rule="evenodd" clip-rule="evenodd" d="M4.52621 24.0894C2.02649 24.0894 0 22.082 0 19.606C0 17.13 2.02649 15.1223 4.52621 15.1223C5.43913 15.1223 6.28907 15.3902 7.00019 15.8508L19.3308 24.0894H4.52621ZM5.77722 14.0002C3.68316 12.6523 3.08788 9.87697 4.44783 7.8012C5.80779 5.72565 8.60791 5.13554 10.7017 6.48352C11.4385 6.95604 12.0198 7.63195 12.374 8.42801L18.6755 22.673L5.77722 14.0002ZM38.463 24.0937C40.9687 24.0937 43 22.0845 43 19.6058C43 17.127 40.9687 15.1178 38.463 15.1178C37.5482 15.1178 36.6965 15.3858 35.9837 15.8469L23.6246 24.0939H38.463V24.0937ZM37.2122 14C39.3109 12.6509 39.9075 9.87263 38.5446 7.79504C37.1816 5.71745 34.3755 5.12688 32.2769 6.47623C31.5385 6.9489 30.9558 7.62557 30.6007 8.42276L24.285 22.6812L37.2122 14V14ZM23.2932 5.56451C22.97 5.81272 22.0842 5.94766 22.2764 7.51172L24.1896 20.7812L30.5703 6.31668C31.5904 4.0515 30.56 1.39769 28.2697 0.389327C25.9789 -0.619269 23.2948 0.399356 22.275 2.66454C21.9443 3.39603 21.8186 4.20239 21.911 4.99878L23.1135 4.99673C23.7949 5.03023 24.1537 5.20984 23.2932 5.56451V5.56451ZM12.4156 6.32033C11.3979 4.0572 12.426 1.40567 14.7117 0.398216C16.9977 -0.60924 19.676 0.408473 20.6937 2.6716C21.0528 3.46633 21.1692 4.34793 21.0288 5.20757L18.7831 20.7721L12.4156 6.32033ZM40.121 41.4044C39.3881 41.7003 38.2984 42 37.2885 42C32.6724 42 28.93 38.4855 28.93 34.1505C28.93 29.8153 32.6724 26.301 37.2885 26.301C38.2819 26.301 39.3713 26.541 40.121 26.882V29.8829C39.2801 29.3342 38.2952 29.0425 37.2885 29.0439C34.439 29.0439 32.1284 31.3301 32.1284 34.1503C32.1284 36.9702 34.439 39.2564 37.2885 39.2564C38.3295 39.2564 39.3104 38.9514 40.121 38.4265V41.4044ZM12.3488 26.8139H15.4173V41.812L5.97074 33.2563V41.4837H2.90217V26.4895L12.3488 35.0451V26.8139V26.8139ZM25.7001 33.6443C26.6369 32.9559 27.4526 32.299 27.445 30.5665C27.4347 28.2863 25.5743 26.7997 23.267 26.7997H17.1779V41.4981H24.0078C26.4268 41.4981 28.2674 39.6783 28.2674 37.2868C28.2674 34.8958 26.2742 33.8521 25.7001 33.6443V33.6443ZM20.263 29.0218L22.5439 29.022C23.6118 29.022 24.4773 29.8777 24.4773 30.9333C24.4773 31.9886 23.6118 32.8445 22.5439 32.8445H20.263V29.0218ZM23.0399 39.2917H20.2635V35.0403L23.0401 35.0278C24.2307 35.0278 25.1958 35.9824 25.1958 37.1599C25.1958 38.3374 24.2305 39.2917 23.0399 39.2917V39.2917Z" fill="url(#paint0_linear)"/>
<defs>
<linearGradient id="paint0_linear" x1="1.2815e-06" y1="42" x2="10.174" y2="-6.83832" gradientUnits="userSpaceOnUse">
<stop stop-color="#FC0434"/>
<stop offset="1" stop-color="#FF8805"/>
</linearGradient>
</defs>
</svg>
