<svg width="69" height="30" viewBox="0 0 69 30" fill="none" xmlns="http://www.w3.org/2000/svg">
<path d="M9.84305 9.76737C8.55035 9.76676 7.27022 10.028 6.07592 10.5362C4.88162 11.0444 3.79659 11.7895 2.88292 12.7289C1.96879 13.6677 1.24368 14.7823 0.749017 16.009C0.254353 17.2357 -0.000166491 18.5506 8.17082e-08 19.8784V29.1147H7.47299V20.0362C7.47556 18.9292 7.73199 17.9848 8.16674 17.2521C8.60663 16.5288 9.17756 16.1023 9.84305 16.0991C10.509 16.1023 11.08 16.5283 11.5199 17.2521C11.9546 17.9848 12.2105 18.9292 12.2136 20.0362V29.1152H19.6866V19.8789C19.6869 18.5509 19.4325 17.2359 18.9378 16.009C18.4431 14.782 17.7179 13.6673 16.8037 12.7284C15.89 11.7889 14.8048 11.0438 13.6105 10.5356C12.4161 10.0274 11.1358 9.76616 9.84305 9.76684V9.76737ZM27.7264 7.28198C28.4782 6.50912 28.9433 5.44222 28.9433 4.2634C28.9433 3.08458 28.4782 2.01979 27.7264 1.24746C27.3408 0.850884 26.8827 0.53652 26.3784 0.322439C25.8741 0.108357 25.3336 -0.00121865 24.788 1.02226e-05C23.643 1.02226e-05 22.604 0.475128 21.8521 1.24746C21.1003 2.02032 20.6352 3.08458 20.6352 4.2634C20.6352 5.44222 21.1003 6.50912 21.8521 7.28198L22.7684 8.22588C24.3003 9.79694 24.4093 10.2145 22.9524 11.7111L22.1199 12.5663C21.7686 12.9263 21.49 13.354 21.3002 13.8249C21.1104 14.2959 21.0132 14.8007 21.014 15.3104V29.1131H28.5646V15.3104C28.5648 14.8009 28.4672 14.2964 28.2776 13.8257C28.0879 13.3549 27.8098 12.9272 27.4592 12.5669L26.6262 11.7111C25.1693 10.2145 25.2782 9.79694 26.8102 8.22324L27.7264 7.28198ZM41.1112 23.1045C40.6687 23.9401 40.1004 24.4348 39.4349 24.4348C38.7694 24.4348 38.201 23.9401 37.7581 23.1045C37.3238 22.2603 37.0674 21.167 37.0643 19.8884C37.0674 18.6125 37.3238 17.5192 37.7581 16.6724C38.201 15.8399 38.7694 15.3447 39.4349 15.3421C40.1004 15.3447 40.6687 15.8399 41.1117 16.6724C41.4344 17.3017 41.6575 18.0629 41.752 18.9382H49.2332C49.0183 16.5951 48.0146 14.4024 46.395 12.7379C44.6236 10.9156 42.1395 9.77635 39.4349 9.77635C36.7303 9.77635 34.2456 10.9156 32.4742 12.7379C31.5599 13.6767 30.8347 14.7915 30.34 16.0184C29.8454 17.2454 29.5909 18.5604 29.5913 19.8884C29.5905 21.2164 29.8447 22.5316 30.3394 23.7585C30.8341 24.9854 31.5596 26.1 32.4742 27.0384C33.8391 28.4374 36.2123 30.0032 39.4349 30C41.7727 30.0017 44.0344 29.1467 45.8133 27.5885C47.0636 26.4984 48.9162 24.3123 49.2332 20.8387H41.752C41.6575 21.7145 41.4344 22.4784 41.1117 23.105L41.1112 23.1045ZM69 27.7722C68.9989 27.5252 68.9304 27.2833 68.8021 27.0743L64.7106 20.7162L67.5431 15.4318C67.7922 14.9979 67.9557 14.5177 68.0241 14.0189C68.0926 13.52 68.0647 13.0121 67.9421 12.5243C67.8196 12.0365 67.6046 11.5783 67.3096 11.1758C67.0147 10.7733 66.6454 10.4345 66.2229 10.1786C65.3693 9.66198 64.3509 9.51462 63.3916 9.76892C62.4322 10.0232 61.6104 10.6584 61.1066 11.5348L57.7253 17.7462V13.6063C57.7251 12.5879 57.3312 11.6113 56.6303 10.8912C55.9293 10.1711 54.9786 9.76646 53.9872 9.76632C51.9265 9.76632 50.2523 11.4857 50.2523 13.6063V29.1142H57.7253V23.0432L61.6668 29.1115L67.6993 29.1084C67.8701 29.1084 68.0392 29.0739 68.197 29.0068C68.3548 28.9397 68.4982 28.8414 68.619 28.7174C68.7398 28.5933 68.8356 28.4461 68.901 28.284C68.9663 28.1219 69 27.9482 69 27.7728" fill="url(#paint0_linear)"/>
<defs>
<linearGradient id="paint0_linear" x1="2.05636e-06" y1="30" x2="3.34647" y2="-6.08808" gradientUnits="userSpaceOnUse">
<stop stop-color="#FC0434"/>
<stop offset="1" stop-color="#FF8805"/>
</linearGradient>
</defs>
</svg>
