<svg width="123" height="24" viewBox="0 0 123 24" fill="none" xmlns="http://www.w3.org/2000/svg">
<path d="M97.3448 10.5542V8.72588C97.3448 7.93533 97.2492 7.12347 96.8575 6.44492C96.4063 5.66252 95.6091 5.19363 94.8168 5.16108C94.0274 5.19852 93.3686 5.79374 92.97 6.60349C92.5403 7.50595 92.4087 8.54473 92.4087 9.58449C92.4087 11.431 92.8083 14.1983 94.771 14.2787C95.5789 14.2421 96.3127 13.6898 96.7824 12.9023C97.2317 12.1586 97.3448 11.4139 97.3448 10.5542ZM98.6311 15.523H97.8223C97.6508 15.523 97.4763 15.3663 97.4753 15.1934V13.7935C96.8692 15.0489 95.9609 15.7478 94.5517 15.7478C93.1523 15.7478 92.2538 15.0264 91.5628 13.8076C90.9079 12.6325 90.6643 11.1879 90.6643 9.78697C90.6643 6.92 91.7684 3.75999 94.6774 3.75999C95.9385 3.75999 96.6967 4.34694 97.3448 5.33177V0.36409C97.3448 0.190077 97.5182 0.0344351 97.6897 0.0344351H98.6292C98.8017 0.0344351 98.9761 0.190077 98.9761 0.36409V15.1954C98.9761 15.3683 98.8046 15.522 98.6311 15.524" fill="url(#paint0_linear)"/>
<path d="M109.162 15.7468C106.319 15.7468 105.047 12.7373 105.047 9.72792C105.047 6.56078 106.544 3.81897 109.406 3.81897H109.558C112.344 3.81897 113.729 6.74006 113.729 9.74938C113.729 12.9399 112.195 15.7468 109.315 15.7468H109.162H109.162ZM109.372 14.2859C110.309 14.2533 111.045 13.653 111.482 12.6467C111.876 11.7494 111.95 10.7148 111.95 9.72792C111.95 8.6495 111.838 7.52639 111.351 6.60465C110.916 5.79986 110.164 5.28815 109.369 5.2586C108.483 5.29116 107.694 5.91488 107.294 6.87528C106.939 7.70547 106.827 8.80618 106.827 9.72792C106.827 10.7616 106.957 11.9508 107.368 12.8502C107.768 13.7007 108.54 14.2563 109.372 14.2859Z" fill="url(#paint1_linear)"/>
<path d="M120.979 6.7341C121.046 6.89387 121.216 7.01391 121.381 6.97215L122.245 6.75437C122.412 6.71205 122.558 6.51644 122.507 6.34861C121.944 4.46947 120.473 3.77958 118.756 3.78569C116.857 3.79383 115.119 4.7766 115.119 7.14205C115.119 9.16867 116.444 9.98061 117.901 10.3184L119.451 10.6562C120.272 10.8352 121.298 11.175 121.298 12.3907C121.298 13.813 120.083 14.2576 119.089 14.282C118.035 14.2568 116.704 13.7348 116.371 12.4284C116.332 12.2596 116.14 12.1456 115.974 12.1852L115.071 12.3978C114.902 12.4385 114.765 12.6307 114.807 12.7996C115.311 14.8639 117.104 15.7308 118.975 15.7471C120.949 15.7633 123 14.8009 123 12.2107C123 11.175 122.607 10.2279 121.861 9.62052C121.283 9.14642 120.571 8.98851 119.882 8.83086L118.501 8.53796C117.661 8.38023 116.802 8.11058 116.802 6.87141C116.802 5.6495 117.888 5.22947 118.736 5.20505C119.703 5.2311 120.556 5.6954 120.979 6.7341Z" fill="url(#paint2_linear)"/>
<path d="M101.254 0.992939C101.254 0.443554 101.706 0 102.261 0C102.818 0 103.269 0.443554 103.269 0.992939C103.269 1.54135 102.818 1.98488 102.261 1.98488C101.706 1.98488 101.254 1.54135 101.254 0.992939ZM102.739 15.457H101.787C101.614 15.457 101.44 15.3003 101.44 15.1284L101.444 4.33797C101.444 4.16396 101.618 4.00732 101.79 4.00732H102.737C102.909 4.00732 103.084 4.16297 103.084 4.33698V15.1284C103.084 15.3003 102.913 15.4541 102.739 15.456" fill="url(#paint3_linear)"/>
<path d="M88.8311 15.523H88.0212C87.8497 15.523 87.6753 15.3663 87.6753 15.1923V13.5951C87.109 14.8405 86.1969 15.7469 84.7907 15.7469C83.6962 15.7469 82.8728 15.3419 82.2734 14.4577C81.6341 13.5075 81.5221 12.1942 81.5221 11.0181V4.35526C81.5221 4.17929 81.6965 4.02262 81.869 4.02262H82.8104C82.9838 4.02262 83.1573 4.17929 83.1573 4.35526L83.1581 11.0181C83.1581 11.6743 83.1961 12.534 83.4777 13.122C83.7467 13.7314 84.3617 14.2086 84.9415 14.2075C85.5457 14.2075 86.3263 13.7478 86.8116 13.0326C87.3944 12.1719 87.5435 11.2216 87.5435 10.135V4.34512C87.545 4.18023 87.717 4.02164 87.8895 4.02262H88.8289C89.0034 4.02262 89.1788 4.18743 89.1778 4.35526L89.1802 15.1904C89.1802 15.3654 89.0038 15.523 88.8313 15.523" fill="url(#paint4_linear)"/>
<path d="M72.5645 6.73373C72.6307 6.8935 72.8003 7.01353 72.9679 6.97178L73.8304 6.754C73.998 6.71249 74.1432 6.51491 74.0925 6.34903C73.5282 4.46997 72.0577 3.77921 70.3415 3.78531C68.4431 3.79345 66.7045 4.77631 66.7045 7.14167C66.7045 9.16732 68.0309 9.9801 69.4869 10.3168L71.0354 10.6558C71.8579 10.8349 72.8841 11.1746 72.8841 12.3903C72.8841 13.8137 71.6679 14.2572 70.6748 14.2816C69.6204 14.2564 68.2892 13.7354 67.9559 12.4281C67.9179 12.2592 67.7259 12.1452 67.5582 12.1849L66.6568 12.3975C66.4872 12.4382 66.3508 12.6304 66.3917 12.7993C66.8955 14.8636 68.6887 15.7314 70.5608 15.7467C72.5352 15.763 74.5847 14.8015 74.5847 12.2103C74.5847 11.1746 74.1929 10.2273 73.4454 9.61895C72.8675 9.14591 72.1581 8.98814 71.4671 8.83048L70.0862 8.53759C69.2452 8.37986 68.3866 8.1102 68.3866 6.87103C68.3866 5.64912 69.4732 5.23007 70.322 5.20468C71.2888 5.23154 72.1415 5.69502 72.5645 6.73373Z" fill="url(#paint5_linear)"/>
<path d="M75.0617 5.38469H76.4066V12.0078C76.4066 14.2837 77.0234 15.7466 79.1197 15.7457H79.2649L80.3437 15.6439C80.5094 15.6228 80.6624 15.4721 80.6624 15.294L80.6655 14.588C80.6655 14.4079 80.5193 14.2137 80.3507 14.2299L79.4074 14.3245C78.3247 14.2716 78.0333 13.5757 78.0333 12.2999V5.3837H79.8235C79.9902 5.3837 80.1412 5.21186 80.1412 5.03378L80.142 4.33373C80.142 4.1537 79.99 3.98478 79.8233 3.98381H78.0331V1.31517C78.0323 1.14124 77.8625 0.962078 77.6949 0.985518L76.7555 1.10256C76.5742 1.1229 76.4076 1.25822 76.4066 1.43321V3.98381H75.0442C74.8766 3.98381 74.7343 4.15891 74.7343 4.33691L74.7265 5.02563C74.7265 5.20469 74.8941 5.38272 75.0617 5.3837" fill="url(#paint6_linear)"/>
<path d="M40.08 19.5754C36.328 22.4627 30.8843 24 26.1997 24C19.6303 24 13.7198 21.4718 9.2437 17.2537C8.89092 16.9241 9.20471 16.4714 9.62766 16.7297C14.4565 19.6567 20.4236 21.422 26.5914 21.422C30.7537 21.422 35.3292 20.5206 39.5353 18.6607C40.1716 18.381 40.7037 19.1003 40.08 19.5754Z" fill="url(#paint7_linear)"/>
<path d="M41.6449 17.716C41.1606 17.0771 38.4689 17.4129 37.2605 17.5666C36.8902 17.6121 36.8327 17.2776 37.165 17.0364C39.3158 15.4626 42.8358 15.9143 43.2461 16.4443C43.6564 16.9733 43.137 20.6522 41.1216 22.4122C40.8117 22.6799 40.5193 22.5343 40.6548 22.1823C41.1089 21.0012 42.1244 18.358 41.6449 17.716Z" fill="url(#paint8_linear)"/>
<path d="M37.3441 5.91949V4.39044C37.3441 4.15945 37.5136 4.00077 37.7144 4.00077H44.2886C44.4982 4.00077 44.6677 4.16352 44.6677 4.39044V5.69674C44.6677 5.9195 44.4884 6.20549 44.1697 6.66225L40.7676 11.7299C42.0325 11.6981 43.3676 11.8967 44.5157 12.5712C44.7768 12.7208 44.847 12.9465 44.8636 13.1683V14.7971C44.8636 15.023 44.6287 15.2824 44.3802 15.1451C42.36 14.0422 39.6732 13.9192 37.4356 15.1606C37.2086 15.2867 36.9688 15.0333 36.9688 14.8075V13.254C36.9688 13.0057 36.9727 12.5845 37.2125 12.205L41.1565 6.30418H37.7232C37.5136 6.30418 37.3441 6.15067 37.3441 5.91968" fill="url(#paint9_linear)"/>
<path d="M13.3696 15.4669H11.3679C11.1798 15.4579 11.0268 15.3082 11.0092 15.1189L11.0139 4.41817C11.0139 4.20452 11.1825 4.03268 11.3969 4.03268H13.2592C13.4561 4.04163 13.613 4.19639 13.6227 4.39075V5.78865H13.6618C14.1451 4.43554 15.0621 3.80675 16.292 3.80675C17.5433 3.80675 18.3288 4.43554 18.8872 5.78865C19.3715 4.43554 20.4747 3.80675 21.6491 3.80675C22.4901 3.80675 23.4062 4.16376 23.9655 4.97872C24.597 5.87906 24.4703 7.18233 24.4703 8.33091L24.4664 15.0824C24.4664 15.3001 24.2969 15.4669 24.0825 15.4669H22.0847C21.8839 15.4539 21.727 15.291 21.727 15.0824V9.41247C21.727 8.9597 21.7621 7.83862 21.6695 7.40831C21.5174 6.68899 21.0731 6.48552 20.4922 6.48552C20.0079 6.48552 19.5021 6.82419 19.2975 7.36341C19.0918 7.90262 19.1142 8.80205 19.1142 9.41247V15.0824C19.1142 15.3001 18.9398 15.4669 18.7254 15.4669H16.7276C16.5268 15.4539 16.37 15.291 16.37 15.0824L16.366 9.41247C16.366 8.21807 16.5531 6.46207 15.1362 6.46207C13.7007 6.46207 13.7533 8.1733 13.7533 9.41247V15.0824C13.7533 15.3001 13.5828 15.4669 13.3693 15.4669" fill="url(#paint10_linear)"/>
<path d="M50.3461 5.98733C48.8706 5.98733 48.78 8.0821 48.78 9.3894C48.78 10.6937 48.7624 13.4895 50.3275 13.4895C51.8761 13.4895 51.9501 11.236 51.9501 9.86053C51.9501 8.96011 51.9151 7.87865 51.6539 7.02299C51.4268 6.28136 50.9824 5.98733 50.3461 5.98733ZM50.3276 3.80712C53.2941 3.80712 54.8991 6.46241 54.8991 9.83808C54.8991 13.1048 53.1284 15.6932 50.3276 15.6932C47.4186 15.6932 45.8301 13.0377 45.8301 9.72918C45.8301 6.39421 47.4352 3.80712 50.3276 3.80712Z" fill="url(#paint11_linear)"/>
<path d="M58.7495 15.4669H56.7556C56.5548 15.4539 56.3969 15.291 56.3969 15.0824L56.3938 4.38161C56.4104 4.18627 56.5761 4.03268 56.7778 4.03268H58.6314C58.8058 4.04163 58.95 4.16383 58.989 4.33173V5.96968H59.0231C59.5864 4.50359 60.367 3.80675 61.7499 3.80675C62.6445 3.80675 63.5255 4.14136 64.0839 5.06417C64.6073 5.92381 64.6073 7.36357 64.6073 8.39927V15.1323C64.5858 15.3235 64.4192 15.4669 64.2233 15.4669H62.2167C62.0335 15.4579 61.8854 15.3133 61.863 15.1323V9.32186C61.863 8.1509 61.9945 6.44061 60.6117 6.44061C60.1273 6.44061 59.6781 6.77948 59.4559 7.29525C59.1762 7.94637 59.1372 8.60262 59.1372 9.32186V15.0824C59.1333 15.3001 58.9628 15.4669 58.7493 15.4669" fill="url(#paint12_linear)"/>
<path d="M9.45301 13.5076C9.08659 12.9826 8.69775 12.5522 8.69775 11.5755V8.32588C8.69775 6.95038 8.78935 5.68905 7.81676 4.73882C7.0537 3.97269 5.77999 3.70197 4.8074 3.70197C2.9051 3.70197 0.780599 4.44353 0.335235 6.89241C0.288457 7.15383 0.470725 7.29018 0.632498 7.33095L2.57377 7.54874C2.75308 7.53897 2.88368 7.35431 2.91876 7.16305C3.08443 6.32163 3.76369 5.91477 4.5287 5.91477C4.938 5.91477 5.40481 6.07336 5.64942 6.45386C5.92813 6.88319 5.894 7.47136 5.894 7.96483V8.23547C4.73333 8.37074 3.21989 8.46327 2.13328 8.95975C0.88197 9.52542 0 10.675 0 12.367C0 14.535 1.3088 15.6164 2.9928 15.6164C4.41465 15.6164 5.19134 15.2676 6.29062 14.1007C6.65217 14.648 6.7701 14.9145 7.43765 15.4893C7.58578 15.5747 7.7778 15.5666 7.90936 15.4396H7.91326C8.3099 15.0744 9.03788 14.4131 9.44816 14.056C9.60993 13.9197 9.57873 13.6938 9.45282 13.5036L9.45301 13.5076ZM5.89381 10.3539C5.89381 11.1688 5.91041 11.8422 5.5186 12.5677C5.19993 13.1557 4.69417 13.5127 4.13479 13.5127C3.36783 13.5127 2.91857 12.9064 2.91857 12.002C2.91857 10.2287 4.44467 9.90222 5.89381 9.90222V10.3539Z" fill="url(#paint13_linear)"/>
<path d="M35.6652 13.5076C35.2987 12.9826 34.9108 12.5522 34.9108 11.5755V8.32588C34.9108 6.95038 35.0063 5.68905 34.0338 4.73882C33.2658 3.97269 31.9921 3.70197 31.0195 3.70197C29.1172 3.70197 26.9937 4.44353 26.5483 6.89241C26.5005 7.15383 26.6828 7.29018 26.8495 7.33095L28.7869 7.54874C28.9652 7.53897 29.1006 7.35431 29.1308 7.16305C29.3014 6.32163 29.9767 5.91477 30.7408 5.91477C31.1501 5.91477 31.6159 6.07336 31.8615 6.45386C32.1451 6.88319 32.1051 7.47136 32.1051 7.96483V8.23547C30.9454 8.37074 29.431 8.46327 28.3454 8.95975C27.0941 9.52542 26.2121 10.675 26.2121 12.367C26.2121 14.535 27.5209 15.6164 29.2049 15.6164C30.6278 15.6164 31.4045 15.2676 32.5018 14.1007C32.8653 14.648 32.9861 14.9145 33.6498 15.4893C33.7979 15.5747 33.9909 15.5666 34.1215 15.4396H34.1254C34.5269 15.0744 35.251 14.4131 35.6613 14.056C35.8221 13.9197 35.7918 13.6938 35.6652 13.5036V13.5076ZM32.1051 10.3539C32.1051 11.1688 32.1227 11.8422 31.7299 12.5677C31.4122 13.1557 30.9104 13.5127 30.3481 13.5127C29.5801 13.5127 29.1308 12.9064 29.1308 12.002C29.1308 10.2287 30.658 9.90222 32.1051 9.90222V10.3539Z" fill="url(#paint14_linear)"/>
<defs>
<linearGradient id="paint0_linear" x1="3.66569e-06" y1="24" x2="1.2097" y2="-5.06838" gradientUnits="userSpaceOnUse">
<stop stop-color="#FC0434"/>
<stop offset="1" stop-color="#FF8805"/>
</linearGradient>
<linearGradient id="paint1_linear" x1="3.66569e-06" y1="24" x2="1.2097" y2="-5.06838" gradientUnits="userSpaceOnUse">
<stop stop-color="#FC0434"/>
<stop offset="1" stop-color="#FF8805"/>
</linearGradient>
<linearGradient id="paint2_linear" x1="3.66569e-06" y1="24" x2="1.2097" y2="-5.06838" gradientUnits="userSpaceOnUse">
<stop stop-color="#FC0434"/>
<stop offset="1" stop-color="#FF8805"/>
</linearGradient>
<linearGradient id="paint3_linear" x1="3.66569e-06" y1="24" x2="1.2097" y2="-5.06838" gradientUnits="userSpaceOnUse">
<stop stop-color="#FC0434"/>
<stop offset="1" stop-color="#FF8805"/>
</linearGradient>
<linearGradient id="paint4_linear" x1="3.66569e-06" y1="24" x2="1.2097" y2="-5.06838" gradientUnits="userSpaceOnUse">
<stop stop-color="#FC0434"/>
<stop offset="1" stop-color="#FF8805"/>
</linearGradient>
<linearGradient id="paint5_linear" x1="3.66569e-06" y1="24" x2="1.2097" y2="-5.06838" gradientUnits="userSpaceOnUse">
<stop stop-color="#FC0434"/>
<stop offset="1" stop-color="#FF8805"/>
</linearGradient>
<linearGradient id="paint6_linear" x1="3.66569e-06" y1="24" x2="1.2097" y2="-5.06838" gradientUnits="userSpaceOnUse">
<stop stop-color="#FC0434"/>
<stop offset="1" stop-color="#FF8805"/>
</linearGradient>
<linearGradient id="paint7_linear" x1="3.66569e-06" y1="24" x2="1.2097" y2="-5.06838" gradientUnits="userSpaceOnUse">
<stop stop-color="#FC0434"/>
<stop offset="1" stop-color="#FF8805"/>
</linearGradient>
<linearGradient id="paint8_linear" x1="3.66569e-06" y1="24" x2="1.2097" y2="-5.06838" gradientUnits="userSpaceOnUse">
<stop stop-color="#FC0434"/>
<stop offset="1" stop-color="#FF8805"/>
</linearGradient>
<linearGradient id="paint9_linear" x1="3.66569e-06" y1="24" x2="1.2097" y2="-5.06838" gradientUnits="userSpaceOnUse">
<stop stop-color="#FC0434"/>
<stop offset="1" stop-color="#FF8805"/>
</linearGradient>
<linearGradient id="paint10_linear" x1="3.66569e-06" y1="24" x2="1.2097" y2="-5.06838" gradientUnits="userSpaceOnUse">
<stop stop-color="#FC0434"/>
<stop offset="1" stop-color="#FF8805"/>
</linearGradient>
<linearGradient id="paint11_linear" x1="3.66569e-06" y1="24" x2="1.2097" y2="-5.06838" gradientUnits="userSpaceOnUse">
<stop stop-color="#FC0434"/>
<stop offset="1" stop-color="#FF8805"/>
</linearGradient>
<linearGradient id="paint12_linear" x1="3.66569e-06" y1="24" x2="1.2097" y2="-5.06838" gradientUnits="userSpaceOnUse">
<stop stop-color="#FC0434"/>
<stop offset="1" stop-color="#FF8805"/>
</linearGradient>
<linearGradient id="paint13_linear" x1="3.66569e-06" y1="24" x2="1.2097" y2="-5.06838" gradientUnits="userSpaceOnUse">
<stop stop-color="#FC0434"/>
<stop offset="1" stop-color="#FF8805"/>
</linearGradient>
<linearGradient id="paint14_linear" x1="3.66569e-06" y1="24" x2="1.2097" y2="-5.06838" gradientUnits="userSpaceOnUse">
<stop stop-color="#FC0434"/>
<stop offset="1" stop-color="#FF8805"/>
</linearGradient>
</defs>
</svg>
