<svg width="90" height="25" viewBox="0 0 90 25" fill="none" xmlns="http://www.w3.org/2000/svg">
<path d="M85.1854 11.9L90 25C88.5811 24.7917 87.163 24.5309 85.719 24.2958L83.0068 17.0576L80.2201 23.6983C78.8523 23.4633 77.5087 23.385 76.1408 23.2025L81.0309 11.7442L76.5956 0H80.7008L83.1835 6.56169L85.8446 0H89.9992L85.1854 11.9ZM73.3541 0H69.6292V22.7083C70.8455 22.7867 72.1119 22.8383 73.3541 22.9942V0ZM66.4111 22.4476C63.0163 22.2133 59.6206 22.0059 56.1495 21.9267V0.000100608H59.9498V18.2292C62.1293 18.2809 64.3079 18.4626 66.4111 18.5667V22.4476ZM52.0946 8.88081V12.7866H46.9006V21.6666H43.1515V0H53.7933V3.90582H46.9014V8.88091H52.0954L52.0946 8.88081ZM36.7655 3.90582V21.875C35.4982 21.875 34.2066 21.875 32.9644 21.9267V3.90582H29.0369V0H40.7172V3.90582H36.7655ZM24.9326 12.9942C23.2606 12.9942 21.2839 12.9942 19.865 13.0734V18.88C22.0947 18.7233 24.3244 18.5416 26.5792 18.4634V22.2133L16.0647 23.0733V0H26.5785V3.90582H19.8649V9.16664C21.3349 9.16664 23.5898 9.08837 24.9324 9.08837V12.995L24.9326 12.9942ZM3.87573 10.8067V24.4525C2.50871 24.6091 1.29165 24.7916 0 25V0H3.62357L8.56394 14.1934V0H12.365V23.385C11.0222 23.6201 9.65365 23.6983 8.20958 23.9059L3.87573 10.8067Z" fill="url(#paint0_linear)"/>
<defs>
<linearGradient id="paint0_linear" x1="2.68221e-06" y1="25" x2="1.79072" y2="-5.22591" gradientUnits="userSpaceOnUse">
<stop stop-color="#FC0434"/>
<stop offset="1" stop-color="#FF8805"/>
</linearGradient>
</defs>
</svg>
