<svg width="205" height="38" viewBox="0 0 205 38" fill="none" xmlns="http://www.w3.org/2000/svg">
<path fill-rule="evenodd" clip-rule="evenodd" d="M33.0846 37.585C39.8357 37.585 46.2984 32.2024 47.5195 25.5626C48.7339 18.9589 44.306 13.5987 37.6162 13.5407L36.0379 22.1232C35.6886 24.0227 33.8398 25.5625 31.9085 25.5625L17.6884 25.5625L16.11 34.1458C15.7607 36.0452 17.0431 37.585 18.9744 37.585L33.0846 37.585Z" fill="url(#paint0_linear)"/>
<path fill-rule="evenodd" clip-rule="evenodd" d="M19.0599 0.41507C12.3088 0.41507 5.8461 5.79769 4.62507 12.4375C3.41088 19.0401 7.8371 24.3996 14.5251 24.4594L16.1034 15.8769C16.4527 13.9775 18.3015 12.4377 20.2328 12.4377L34.4561 12.4377L36.0346 3.85432C36.3839 1.95488 35.1014 0.41507 33.1701 0.41507H19.0599Z" fill="url(#paint1_linear)"/>
<path d="M70.7083 29.685C69.0523 29.685 67.6123 29.379 66.3883 28.767C65.1823 28.155 64.2463 27.273 63.5803 26.121C62.9323 24.969 62.6083 23.619 62.6083 22.071C62.6083 19.767 63.0403 17.724 63.9043 15.942C64.7863 14.142 66.0013 12.747 67.5493 11.757C69.1153 10.749 70.8973 10.245 72.8953 10.245C74.5333 10.245 75.9463 10.56 77.1343 11.19C78.3223 11.802 79.1143 12.639 79.5103 13.701L76.6483 15.834C76.3063 15.15 75.8113 14.628 75.1633 14.268C74.5153 13.89 73.7683 13.701 72.9223 13.701C71.7523 13.701 70.7173 14.052 69.8173 14.754C68.9173 15.456 68.2153 16.437 67.7113 17.697C67.2073 18.957 66.9553 20.397 66.9553 22.017C66.9553 23.367 67.2793 24.411 67.9273 25.149C68.5753 25.869 69.5023 26.229 70.7083 26.229C72.5443 26.229 74.0383 25.518 75.1903 24.096L77.4043 26.256C75.8743 28.542 73.6423 29.685 70.7083 29.685ZM85.7165 10.515H90.0635L86.7425 29.415H82.3955L85.7165 10.515ZM112.366 10.515L109.045 29.415H105.103L99.8917 17.67L97.8127 29.415H93.4927L96.8137 10.515H100.945L106.021 22.044L108.046 10.515H112.366ZM118.524 10.515H131.457L130.863 13.971H122.277L121.602 17.778H129.27L128.649 21.234H120.981L120.171 25.959H128.757L128.136 29.415H115.203L118.524 10.515ZM139.453 29.685C137.995 29.685 136.699 29.379 135.565 28.767C134.431 28.155 133.558 27.3 132.946 26.202L135.889 23.826C136.339 24.546 136.924 25.131 137.644 25.581C138.382 26.013 139.12 26.229 139.858 26.229C140.776 26.229 141.487 26.04 141.991 25.662C142.513 25.284 142.774 24.753 142.774 24.069C142.774 23.673 142.585 23.313 142.207 22.989C141.847 22.647 141.118 22.179 140.02 21.585C138.418 20.703 137.257 19.83 136.537 18.966C135.835 18.084 135.484 17.112 135.484 16.05C135.484 14.898 135.781 13.89 136.375 13.026C136.987 12.144 137.842 11.46 138.94 10.974C140.056 10.488 141.343 10.245 142.801 10.245C144.133 10.245 145.303 10.506 146.311 11.028C147.337 11.55 148.084 12.279 148.552 13.215L145.447 15.267C144.745 14.223 143.791 13.701 142.585 13.701C141.775 13.701 141.127 13.872 140.641 14.214C140.155 14.538 139.912 14.979 139.912 15.537C139.912 15.951 140.164 16.356 140.668 16.752C141.172 17.148 142.117 17.688 143.503 18.372C144.817 19.02 145.762 19.731 146.338 20.505C146.914 21.279 147.202 22.224 147.202 23.34C147.202 25.338 146.518 26.895 145.15 28.011C143.8 29.127 141.901 29.685 139.453 29.685ZM154.484 10.515H167.417L166.823 13.971H158.237L157.562 17.778H165.23L164.609 21.234H156.941L156.131 25.959H164.717L164.096 29.415H151.163L154.484 10.515ZM172.767 10.515H177.114L174.414 25.959H183.243L182.622 29.415H169.446L172.767 10.515ZM190.865 10.515H203.933L203.339 13.971H194.618L193.808 18.48H201.962L201.368 21.936H193.214L191.891 29.415H187.544L190.865 10.515Z" fill="#283046"/>
<defs>
<linearGradient id="paint0_linear" x1="44.7983" y1="37.5359" x2="18.7794" y2="18.3212" gradientUnits="userSpaceOnUse">
<stop stop-color="#F69126"/>
<stop offset="0.505208" stop-color="#E02724"/>
<stop offset="1" stop-color="#15003C"/>
</linearGradient>
<linearGradient id="paint1_linear" x1="8.1817" y1="0.41507" x2="29.3191" y2="20.5274" gradientUnits="userSpaceOnUse">
<stop stop-color="#00274D"/>
<stop offset="0.505208" stop-color="#04AE9D"/>
<stop offset="1" stop-color="#BDCA8F"/>
</linearGradient>
</defs>
</svg>
